<svg xmlns="http://www.w3.org/2000/svg" width="2800" height="2200" viewBox="0 0 2800 2200" role="img" aria-labelledby="title desc">
  <title id="title">Complete Architecture of the ARPES Explorer Application</title>
  <desc id="desc">Comprehensive diagram of layers, data flows, modules, contracts, caches, UI controls, analyses, and tests for the local ARPES Explorer application.</desc>
  <defs>
    <marker id="arrow" markerWidth="12" markerHeight="12" refX="10" refY="6" orient="auto">
      <path d="M2,2 L10,6 L2,10 Z" fill="#263238"/>
    </marker>
    <marker id="arrowBlue" markerWidth="12" markerHeight="12" refX="10" refY="6" orient="auto">
      <path d="M2,2 L10,6 L2,10 Z" fill="#2563eb"/>
    </marker>
    <marker id="arrowGreen" markerWidth="12" markerHeight="12" refX="10" refY="6" orient="auto">
      <path d="M2,2 L10,6 L2,10 Z" fill="#15803d"/>
    </marker>
    <marker id="arrowOrange" markerWidth="12" markerHeight="12" refX="10" refY="6" orient="auto">
      <path d="M2,2 L10,6 L2,10 Z" fill="#c2410c"/>
    </marker>
    <style>
      .bg { fill: #f7f9fc; }
      .panel { fill: #ffffff; stroke: #cfd7e3; stroke-width: 1.5; rx: 16; }
      .panel2 { fill: #fbfdff; stroke: #d7dee9; stroke-width: 1.2; rx: 14; }
      .title { font: 700 40px Arial, Helvetica, sans-serif; fill: #101828; }
      .subtitle { font: 18px Arial, Helvetica, sans-serif; fill: #475467; }
      .stamp { font: 12px Arial, Helvetica, sans-serif; fill: #667085; }
      .section { font: 700 22px Arial, Helvetica, sans-serif; fill: #101828; }
      .label { font: 700 15px Arial, Helvetica, sans-serif; fill: #111827; }
      .small { font: 13px Arial, Helvetica, sans-serif; fill: #344054; }
      .tiny { font: 11.5px Arial, Helvetica, sans-serif; fill: #667085; }
      .mono { font: 12px "SFMono-Regular", Consolas, "Liberation Mono", monospace; fill: #344054; }
      .monoStrong { font: 700 12px "SFMono-Regular", Consolas, "Liberation Mono", monospace; fill: #1f2937; }
      .box { fill: #ffffff; stroke: #98a2b3; stroke-width: 1.2; rx: 9; }
      .ui { fill: #eff6ff; stroke: #2563eb; stroke-width: 1.5; rx: 9; }
      .ctrl { fill: #ecfeff; stroke: #0891b2; stroke-width: 1.5; rx: 9; }
      .io { fill: #ecfdf3; stroke: #16a34a; stroke-width: 1.5; rx: 9; }
      .model { fill: #f4f3ff; stroke: #7c3aed; stroke-width: 1.5; rx: 9; }
      .physics { fill: #f0fdf4; stroke: #22c55e; stroke-width: 1.5; rx: 9; }
      .render { fill: #fff7ed; stroke: #f97316; stroke-width: 1.5; rx: 9; }
      .analysis { fill: #fffbeb; stroke: #d97706; stroke-width: 1.5; rx: 9; }
      .theory { fill: #fdf4ff; stroke: #c026d3; stroke-width: 1.5; rx: 9; }
      .risk { fill: #fff1f2; stroke: #e11d48; stroke-width: 1.5; rx: 9; }
      .test { fill: #f8fafc; stroke: #64748b; stroke-width: 1.3; rx: 9; }
      .flow { stroke: #263238; stroke-width: 2.0; fill: none; marker-end: url(#arrow); }
      .flowBlue { stroke: #2563eb; stroke-width: 2.0; fill: none; marker-end: url(#arrowBlue); }
      .flowGreen { stroke: #15803d; stroke-width: 2.0; fill: none; marker-end: url(#arrowGreen); }
      .flowOrange { stroke: #c2410c; stroke-width: 2.0; fill: none; marker-end: url(#arrowOrange); }
      .flowSoft { stroke: #667085; stroke-width: 1.5; stroke-dasharray: 8 6; fill: none; marker-end: url(#arrow); }
      .divider { stroke: #d0d5dd; stroke-width: 1; }
      .legendLine { stroke: #667085; stroke-width: 1.5; }
    </style>
  </defs>

  <rect class="bg" width="2800" height="2200"/>
  <text class="title" x="60" y="62">ARPES Explorer - complete operating diagram</text>
  <text class="subtitle" x="60" y="94">PyQt6 + Matplotlib for ARPES: data/logbook ingestion, EF/Gamma calibration, BM/MDC/FS/KZ, FS-BM pairing, DFT, analysis, and export.</text>
  <text class="stamp" x="60" y="120">Generated from local code. Goal: visualize real dependencies and execution flows without conceptual shortcuts.</text>

  <rect class="panel" x="40" y="150" width="2720" height="340"/>
  <text class="section" x="70" y="186">1. Application shell, widgets, and controllers</text>

  <rect class="ui" x="70" y="220" width="350" height="205"/>
  <text class="label" x="95" y="250">Main window</text>
  <text class="monoStrong" x="95" y="277">arpes/app.py</text>
  <text class="small" x="95" y="305">ArpesExplorer(QMainWindow)</text>
  <text class="small" x="95" y="328">Runtime state: _session, _raw_data, _data_disp,</text>
  <text class="small" x="95" y="351">_fit_res, _current_path, selections E/k,</text>
  <text class="small" x="95" y="374">timers redraw, caches RAM, statusbar.</text>
  <text class="tiny" x="95" y="402">Still exposes legacy methods through proxy_map.</text>

  <rect class="ui" x="470" y="205" width="405" height="235"/>
  <text class="label" x="495" y="235">UI construction</text>
  <text class="mono" x="495" y="262">ui/builders/panels.py</text>
  <text class="mono" x="495" y="285">ui/builders/menus.py</text>
  <text class="small" x="495" y="314">Creates: file browser, central tabs,</text>
  <text class="small" x="495" y="337">params panel, FS controls, ResultsPanel,</text>
  <text class="small" x="495" y="360">KZ/Notes/Help, menus cache/export/session.</text>
  <text class="small" x="495" y="383">Connects Qt signals to controllers.</text>
  <text class="tiny" x="495" y="411">Principle: declarative UI, domain logic in controllers/physics/io.</text>

  <rect class="ui" x="925" y="205" width="430" height="235"/>
  <text class="label" x="950" y="235">Widgets</text>
  <text class="mono" x="950" y="262">ui/widgets/canvas.py</text>
  <text class="mono" x="950" y="285">ui/widgets/params*.py, fs_panel.py, kz.py</text>
  <text class="mono" x="950" y="308">ui/widgets/browsers/*, dialogs/*, plots/*</text>
  <text class="small" x="950" y="337">MplCanvas, FitParamsPanel, FermiSurfaceCanvas,</text>
  <text class="small" x="950" y="360">FileBrowserPanel, ResultsPanel, dialogs EF/MP/export.</text>
  <text class="small" x="950" y="383">Emits: params_changed, fit_only_changed, requests.</text>
  <text class="tiny" x="950" y="411">Receives: already prepared data or controller callbacks.</text>

  <rect class="ctrl" x="1405" y="190" width="610" height="265"/>
  <text class="label" x="1430" y="220">Specialized controllers</text>
  <text class="mono" x="1430" y="247">load_controller, logbook_controller, session_io_controller</text>
  <text class="mono" x="1430" y="270">plot_controller, interaction_controller, fs_controller, kz_controller</text>
  <text class="mono" x="1430" y="293">fit_runner, fit_zones, gamma, norm, distortion, pocket</text>
  <text class="mono" x="1430" y="316">pairing, theory_overlay, batch, band_analysis, browser</text>
  <text class="small" x="1430" y="348">Orchestrate user actions, session read/write,</text>
  <text class="small" x="1430" y="371">redraw, fit, overlays, caches, pure-module calls.</text>
  <text class="tiny" x="1430" y="400">Each controller writes parent through allowlisted attributes or proxies.</text>

  <rect class="model" x="2065" y="205" width="640" height="235"/>
  <text class="label" x="2090" y="235">Proxy and legacy routing</text>
  <text class="mono" x="2090" y="262">ui/controllers/proxy_map.py</text>
  <text class="small" x="2090" y="292">_PROXY_MAP maps old methods _draw_bm, _fit_full,</text>
  <text class="small" x="2090" y="315">_apply_gamma_reference_to_bm, _draw_fs_tab, _draw_kz_tab, etc.</text>
  <text class="small" x="2090" y="338">Allows progressive redesign without breaking Qt signals or tests.</text>
  <text class="small" x="2090" y="361">Risk: implicit API; mitigation: smoke tests and fail-loud AttributeError.</text>
  <text class="tiny" x="2090" y="390">Final goal: reduce legacy surface once controllers stabilize.</text>

  <path class="flowBlue" d="M420 322 H470"/>
  <path class="flowBlue" d="M875 322 H925"/>
  <path class="flowBlue" d="M1355 322 H1405"/>
  <path class="flowSoft" d="M2015 322 H2065"/>

  <rect class="panel" x="40" y="520" width="2720" height="440"/>
  <text class="section" x="70" y="556">2. File ingestion, logbooks, and ARPESData normalization</text>

  <rect class="box" x="70" y="595" width="315" height="255"/>
  <text class="label" x="95" y="625">Data sources</text>
  <text class="small" x="95" y="655">Solaris / DA30: .pxt, .ibw, .zip via erlab</text>
  <text class="small" x="95" y="678">BESSY SES/R8000: IBW v5 + note SES</text>
  <text class="small" x="95" y="701">CLS/LNLS text: BM file + *_param.txt</text>
  <text class="small" x="95" y="724">CLS FS: FS folder + Cycle/Step + FS_param.txt</text>
  <text class="small" x="95" y="747">Logbooks: global or scoped CSV/TSV/XLSX</text>
  <text class="small" x="95" y="770">Sessions: .arpes_session.json</text>
  <text class="small" x="95" y="793">Theory: Materials Project or local files</text>
  <text class="tiny" x="95" y="822">Data root typique: Documents/Stage_M2/code/Data.</text>

  <rect class="io" x="430" y="575" width="380" height="300"/>
  <text class="label" x="455" y="605">Loader registry</text>
  <text class="mono" x="455" y="632">io/loaders/common.py</text>
  <text class="small" x="455" y="662">register_loader(name, detector_fn, loader_fn)</text>
  <text class="small" x="455" y="685">detect_format(path) scans _LOADER_REGISTRY</text>
  <text class="small" x="455" y="708">load_arpes(...) applies format_hint then validation</text>
  <text class="small" x="455" y="731">detect_scan_kind: BM, FS, KZ, EDC, unknown</text>
  <text class="mono" x="455" y="764">ARPESData(data, energy, kx, ky, hv, metadata)</text>
  <text class="small" x="455" y="795">Internal contract: data (n_k,n_E), energy E-EF,</text>
  <text class="small" x="455" y="818">kx/ky en pi/a, FS metadata shape (ny,nx,nE).</text>
  <text class="tiny" x="455" y="847">assert_arpes_data_valid blocks inconsistent shapes/axes.</text>

  <rect class="io" x="855" y="575" width="420" height="300"/>
  <text class="label" x="880" y="605">Current loader backends</text>
  <text class="mono" x="880" y="632">io/loaders/solaris.py</text>
  <text class="small" x="880" y="655">erlab.io da30, E-EF = eV - (hv - phi) + EF offset,</text>
  <text class="small" x="880" y="678">kspace.convert, A^-1 to pi/a conversion.</text>
  <text class="mono" x="880" y="708">io/loaders/bessy.py</text>
  <text class="small" x="880" y="731">Manual IBW v5, [SES] note, hv via file/logbook/manual,</text>
  <text class="small" x="880" y="754">E/theta/P axes, FS if 3D, energy warnings.</text>
  <text class="mono" x="880" y="784">io/loaders/cls.py</text>
  <text class="small" x="880" y="807">Param files, Cycle/Step, cache FS mean, P/T motors,</text>
  <text class="small" x="880" y="830">hv guards, static_polar_for_kx.</text>

  <rect class="io" x="1320" y="575" width="420" height="300"/>
  <text class="label" x="1345" y="605">Logbooks and metadata enrichment</text>
  <text class="mono" x="1345" y="632">io/logbook.py</text>
  <text class="mono" x="1345" y="655">io/logbook_io.py</text>
  <text class="mono" x="1345" y="678">io/logbook_matching.py</text>
  <text class="small" x="1345" y="708">Read CSV/XLSX, header detection, column mapping,</text>
  <text class="small" x="1345" y="731">inherit context direction/pol/azi, scoped sheets.</text>
  <text class="small" x="1345" y="754">Applies: hv, temperature, polarization, direction,</text>
  <text class="small" x="1345" y="777">azi, polar, tilt, formula, mp_id, crystal_a.</text>
  <text class="small" x="1345" y="800">KZ row disambiguation: identical File + Spectrum Name.</text>
  <text class="tiny" x="1345" y="830">Priority source when raw file lacks reliable metadata.</text>

  <rect class="ctrl" x="1785" y="575" width="360" height="300"/>
  <text class="label" x="1810" y="605">LoadController and context</text>
  <text class="mono" x="1810" y="632">ui/controllers/load_controller.py</text>
  <text class="mono" x="1810" y="655">io/loader_orchestrator.py</text>
  <text class="small" x="1810" y="685">Prepare FileEntry, hv source, work_func, lattice a,</text>
  <text class="small" x="1810" y="708">angle_offsets, BESSY energy policy.</text>
  <text class="small" x="1810" y="731">Dispatches loader, applies loaded metadata,</text>
  <text class="small" x="1810" y="754">updates scan_kind, tilt, resolution, caches.</text>
  <text class="small" x="1810" y="777">Force reload if a lattice / phi / offsets change.</text>
  <text class="tiny" x="1810" y="807">Bridge between UI/session and pure IO.</text>

  <rect class="model" x="2190" y="595" width="515" height="255"/>
  <text class="label" x="2215" y="625">Caches and input signatures</text>
  <text class="mono" x="2215" y="652">io/artifact_cache.py</text>
  <text class="small" x="2215" y="682">Disk cache .arpes_cache/raw_artifacts/*.npz</text>
  <text class="small" x="2215" y="705">Cache RAM _raw_load_cache et _path_signature_cache</text>
  <text class="small" x="2215" y="728">CLS FS mean cache: *_fs_mean_v*.npz</text>
  <text class="small" x="2215" y="751">Cache key inclut path signature, params, hv, phi, a, offsets</text>
  <text class="small" x="2215" y="774">Menu: reload without cache, clear cache, toggle disk cache</text>
  <text class="tiny" x="2215" y="803">Goal: accelerate reload without hiding metadata changes.</text>

  <path class="flowGreen" d="M385 725 H430"/>
  <path class="flowGreen" d="M810 725 H855"/>
  <path class="flowGreen" d="M1275 725 H1320"/>
  <path class="flowGreen" d="M1740 725 H1785"/>
  <path class="flowGreen" d="M2145 725 H2190"/>

  <rect class="panel" x="40" y="990" width="2720" height="375"/>
  <text class="section" x="70" y="1026">3. Domain model, session, and value provenance</text>

  <rect class="model" x="70" y="1060" width="380" height="230"/>
  <text class="label" x="95" y="1090">Session and durable storage</text>
  <text class="mono" x="95" y="1117">core/session.py</text>
  <text class="small" x="95" y="1147">Session.VERSION, atomic JSON save/load</text>
  <text class="small" x="95" y="1170">files: key path -> FileEntry</text>
  <text class="small" x="95" y="1193">folder, work_func, logbook_records/mapping</text>
  <text class="small" x="95" y="1216">scoped_logbooks, gamma_reference, ef_reference</text>
  <text class="small" x="95" y="1239">convention_registry, recent sessions.</text>
  <text class="tiny" x="95" y="1268">Preserve dirty worktree/session state; backup option.</text>

  <rect class="model" x="500" y="1060" width="425" height="230"/>
  <text class="label" x="525" y="1090">FileEntry per file</text>
  <text class="mono" x="525" y="1117">FileMeta, FitParams, FileEntry</text>
  <text class="small" x="525" y="1147">FitParams: ranges E/k, n_pairs, widths, smoothing,</text>
  <text class="small" x="525" y="1170">gamma init/max, k0, shape, resolution, pairs.</text>
  <text class="small" x="525" y="1193">FileMeta: hv, T, direction, pol, meas_no, azi,</text>
  <text class="small" x="525" y="1216">polar, tilt, loader, source_format, formula, mp_id, a/c.</text>
  <text class="small" x="525" y="1239">Extras: fs center, fs lattice, grid, EF, distortion,</text>
  <text class="small" x="525" y="1262">theory overlay, band analysis, pockets, annotations.</text>

  <rect class="model" x="975" y="1060" width="390" height="230"/>
  <text class="label" x="1000" y="1090">Provenance and explicit contracts</text>
  <text class="mono" x="1000" y="1117">core/models.py</text>
  <text class="small" x="1000" y="1147">MetadataSource(value, source, unit)</text>
  <text class="small" x="1000" y="1170">ResolutionInfo(dE_meV, dk_inv_a, source)</text>
  <text class="small" x="1000" y="1193">LoadContext(hv, T, azi, pol, angle_offsets)</text>
  <text class="small" x="1000" y="1216">Gamma/Fit summaries, detected file tags, axis guards.</text>
  <text class="small" x="1000" y="1239">Goal: track file vs logbook vs manual vs session.</text>
  <text class="tiny" x="1000" y="1268">Helps avoid silent corrections.</text>

  <rect class="model" x="1415" y="1060" width="380" height="230"/>
  <text class="label" x="1440" y="1090">Undo, tags, notes, export, and diff</text>
  <text class="mono" x="1440" y="1117">core/undo.py</text>
  <text class="mono" x="1440" y="1140">analysis/session_diff.py</text>
  <text class="mono" x="1440" y="1163">io/export.py, export_styles.py</text>
  <text class="small" x="1440" y="1193">UndoStack keeps snapshots for sensitive actions.</text>
  <text class="small" x="1440" y="1216">File tags and session notes through UI panels.</text>
  <text class="small" x="1440" y="1239">CSV/figure export with publication style.</text>
  <text class="tiny" x="1440" y="1268">Session comparison for change audits.</text>

  <rect class="risk" x="1845" y="1060" width="405" height="230"/>
  <text class="label" x="1870" y="1090">Critical invariants</text>
  <text class="small" x="1870" y="1120">1. Displayed energy = E - EF if calibration is known.</text>
  <text class="small" x="1870" y="1143">2. BM data shape = (n_k, n_E).</text>
  <text class="small" x="1870" y="1166">3. FS data shape = (n_ky, n_kx, n_E).</text>
  <text class="small" x="1870" y="1189">4. kx/ky displayed in pi/a, not A^-1.</text>
  <text class="small" x="1870" y="1212">5. Every automatic correction must leave warning/source.</text>
  <text class="small" x="1870" y="1235">6. No scoped-logbook mixing across subfolders.</text>
  <text class="tiny" x="1870" y="1264">These invariants control Gamma, KZ, FS-BM, and DFT.</text>

  <rect class="test" x="2300" y="1060" width="405" height="230"/>
  <text class="label" x="2325" y="1090">Contract tests</text>
  <text class="mono" x="2325" y="1117">tests/test_session.py</text>
  <text class="mono" x="2325" y="1140">tests/test_models.py</text>
  <text class="mono" x="2325" y="1163">tests/test_load_cache.py</text>
  <text class="mono" x="2325" y="1186">tests/test_logbook*.py</text>
  <text class="small" x="2325" y="1216">Cover persistence, migration, caches, mapping,</text>
  <text class="small" x="2325" y="1239">scan_kind, file tags, loaders integration.</text>
  <text class="tiny" x="2325" y="1268">Recommended pre-release run: selected test suite + smoke.</text>

  <path class="flow" d="M450 1175 H500"/>
  <path class="flow" d="M925 1175 H975"/>
  <path class="flowSoft" d="M1365 1175 H1415"/>
  <path class="flowSoft" d="M1795 1175 H1845"/>
  <path class="flowSoft" d="M2250 1175 H2300"/>

  <rect class="panel" x="40" y="1395" width="2720" height="450"/>
  <text class="section" x="70" y="1431">4. Visualization, rendering, and scientific interactions</text>

  <rect class="render" x="70" y="1470" width="430" height="260"/>
  <text class="label" x="95" y="1500">Main band map</text>
  <text class="mono" x="95" y="1527">ui/controllers/plot_controller.py</text>
  <text class="mono" x="95" y="1550">physics/plot_compute.py</text>
  <text class="small" x="95" y="1580">_update_display_data: Raw, EDCnorm, SecDev, Curvature,</text>
  <text class="small" x="95" y="1603">distortion, grid correction, display cache.</text>
  <text class="small" x="95" y="1626">draw_bandmap_axes: reusable pcolormesh/mesh.set_array,</text>
  <text class="small" x="95" y="1649">color cache, selection lines, ROI, EF, Gamma, theory, kF.</text>
  <text class="small" x="95" y="1672">Interactions: click map, scroll zoom, ROI fit, annotation.</text>
  <text class="tiny" x="95" y="1702">Future optimization: imshow if regular axes, overlay-only selection.</text>

  <rect class="render" x="545" y="1470" width="390" height="260"/>
  <text class="label" x="570" y="1500">MDC / EDC / waterfall</text>
  <text class="mono" x="570" y="1527">ui/controllers/mdc_edc_drawer.py</text>
  <text class="mono" x="570" y="1550">ui/widgets/plots/mdc_*.py</text>
  <text class="mono" x="570" y="1573">physics/waterfall_compute.py</text>
  <text class="small" x="570" y="1603">MDC integrates around selected E.</text>
  <text class="small" x="570" y="1626">EDC cut at selected k.</text>
  <text class="small" x="570" y="1649">Stacked MDC waterfall + fits/residuals.</text>
  <text class="small" x="570" y="1672">Drag kF init, snap-to-peak, fit annotations.</text>
  <text class="tiny" x="570" y="1702">Likely hot path: cla/tight_layout on every redraw.</text>

  <rect class="render" x="980" y="1470" width="390" height="260"/>
  <text class="label" x="1005" y="1500">Fermi surface</text>
  <text class="mono" x="1005" y="1527">ui/widgets/fs_panel.py</text>
  <text class="mono" x="1005" y="1550">ui/controllers/fs_controller.py</text>
  <text class="mono" x="1005" y="1573">physics/fs.py, fs_gamma.py</text>
  <text class="small" x="1005" y="1603">extract_fs_map: EF integration, norm flux, smoothing,</text>
  <text class="small" x="1005" y="1626">robust normalization, FS cache.</text>
  <text class="small" x="1005" y="1649">Draw: FS image, BZ, MP crystal BZ, pockets, BM cuts.</text>
  <text class="small" x="1005" y="1672">Gamma FS detect, manual center, save center.</text>
  <text class="tiny" x="1005" y="1702">Debounced redraw 150 ms; 1-entry distortion volume cache.</text>

  <rect class="render" x="1415" y="1470" width="370" height="260"/>
  <text class="label" x="1440" y="1500">KZ view</text>
  <text class="mono" x="1440" y="1527">ui/controllers/kz_controller.py</text>
  <text class="mono" x="1440" y="1550">ui/widgets/kz.py</text>
  <text class="mono" x="1440" y="1573">io/kz_dataset.py</text>
  <text class="mono" x="1440" y="1596">physics/kz.py</text>
  <text class="small" x="1440" y="1626">Builds hv/kpar/E dataset into k,kz.</text>
  <text class="small" x="1440" y="1649">Parameters V0, a, c, E window, bins.</text>
  <text class="small" x="1440" y="1672">Fold kz to 1BZ, plot intensity, Gamma/Z labels.</text>
  <text class="tiny" x="1440" y="1702">Strongly depends on reliable logbook hv mapping.</text>

  <rect class="theory" x="1830" y="1470" width="405" height="260"/>
  <text class="label" x="1855" y="1500">Theory / DFT overlays</text>
  <text class="mono" x="1855" y="1527">theory/materials_project.py</text>
  <text class="mono" x="1855" y="1550">theory/local_loaders.py, dft_grid.py</text>
  <text class="mono" x="1855" y="1573">theory/alignment.py, comparison.py</text>
  <text class="mono" x="1855" y="1596">ui/controllers/theory_overlay_controller.py</text>
  <text class="small" x="1855" y="1626">MP band structures/lattice cache, local DFT bands,</text>
  <text class="small" x="1855" y="1649">manual mu/Z/dk/k-scale, auto align/EF align.</text>
  <text class="small" x="1855" y="1672">3D FS DFT grid for pocket comparison.</text>
  <text class="tiny" x="1855" y="1702">Optional overlay, never the single source of ARPES data.</text>

  <rect class="analysis" x="2280" y="1470" width="425" height="260"/>
  <text class="label" x="2305" y="1500">Advanced analyses</text>
  <text class="mono" x="2305" y="1527">physics/fit.py, tb_fit.py, gap_extraction.py</text>
  <text class="mono" x="2305" y="1550">physics/kink_analysis.py, pocket*.py</text>
  <text class="mono" x="2305" y="1573">analysis/results.py, self_energy.py</text>
  <text class="small" x="2305" y="1603">Lorentzian/Voigt MDC, fit zones, quality metrics.</text>
  <text class="small" x="2305" y="1626">Self-energy, kink, gap Dynes/symmetrized EDC.</text>
  <text class="small" x="2305" y="1649">FS pockets: contour, radial MDC, Luttinger, bootstrap.</text>
  <text class="small" x="2305" y="1672">Band analysis panel: TB, kink, gap, summary HTML.</text>
  <text class="tiny" x="2305" y="1702">Results persisted in FileEntry.fit_result/band_analysis/fs_pockets.</text>

  <path class="flowOrange" d="M500 1600 H545"/>
  <path class="flowOrange" d="M935 1600 H980"/>
  <path class="flowOrange" d="M1370 1600 H1415"/>
  <path class="flowOrange" d="M1785 1600 H1830"/>
  <path class="flowOrange" d="M2235 1600 H2280"/>

  <rect class="panel" x="40" y="1875" width="2720" height="260"/>
  <text class="section" x="70" y="1911">5. Tests, audits, and watch areas</text>

  <rect class="test" x="70" y="1945" width="480" height="150"/>
  <text class="label" x="95" y="1975">Tests IO / metadata / loaders</text>
  <text class="mono" x="95" y="2002">tests/test_arpes_io.py, test_loaders_integration.py</text>
  <text class="mono" x="95" y="2025">tests/test_logbook*.py, test_file_pairing.py</text>
  <text class="small" x="95" y="2055">Verify format detection, loaders, scoped logbooks,</text>
  <text class="small" x="95" y="2078">KZ hnu, FS-BM pairing, scan_kind, cache signatures.</text>

  <rect class="test" x="590" y="1945" width="500" height="150"/>
  <text class="label" x="615" y="1975">Physics / rendering / UI tests</text>
  <text class="mono" x="615" y="2002">test_plot_controller.py, test_fs.py, test_kz.py</text>
  <text class="mono" x="615" y="2025">test_gamma*.py, test_bm_cut_overlay.py, test_ui_smoke.py</text>
  <text class="small" x="615" y="2055">Cover display caches, MDC/EDC curves, Gamma,</text>
  <text class="small" x="615" y="2078">FS map, KZ dataset, overlays, smoke UI headless.</text>

  <rect class="risk" x="1130" y="1945" width="520" height="150"/>
  <text class="label" x="1155" y="1975">Areas to protect before refactor</text>
  <text class="small" x="1155" y="2005">1. Conventions axes: E-EF, pi/a, shapes BM/FS.</text>
  <text class="small" x="1155" y="2028">2. Loader order: BESSY vs Solaris IBW, CLS folder detection.</text>
  <text class="small" x="1155" y="2051">3. Scoped logbook: do not mix BNA_S1/BNA_S2.</text>
  <text class="small" x="1155" y="2074">4. Gamma/EF: never apply an offset twice.</text>

  <rect class="risk" x="1690" y="1945" width="470" height="150"/>
  <text class="label" x="1715" y="1975">Planned rendering optimization</text>
  <text class="small" x="1715" y="2005">Profiling per draw, imshow fallback pcolormesh,</text>
  <text class="small" x="1715" y="2028">overlay-only E/k selection, reused MDC/EDC artists,</text>
  <text class="small" x="1715" y="2051">FS collect_cuts cache, display downsample if measurement proves it.</text>
  <text class="tiny" x="1715" y="2078">pyqtgraph/GPU = late option, higher risk.</text>

  <rect class="box" x="2200" y="1945" width="505" height="150"/>
  <text class="label" x="2225" y="1975">Usual verification commands</text>
  <text class="mono" x="2225" y="2002">python3 -m pytest tests/test_plot_controller.py</text>
  <text class="mono" x="2225" y="2025">python3 -m pytest tests/test_logbook.py tests/test_kz.py</text>
  <text class="mono" x="2225" y="2048">python3 -m pytest tests/test_gamma*.py tests/test_fs.py</text>
  <text class="mono" x="2225" y="2071">python3 tools/audit_real_data_metadata.py</text>

  <path class="flowSoft" d="M310 1875 C310 1815 280 1785 285 1730"/>
  <path class="flowSoft" d="M840 1875 C840 1815 740 1780 740 1730"/>
  <path class="flowSoft" d="M1390 1875 C1390 1815 1175 1780 1175 1730"/>
  <path class="flowSoft" d="M1925 1875 C1925 1815 2032 1780 2032 1730"/>

  <rect class="panel2" x="60" y="1320" width="2645" height="1"/>
  <text class="stamp" x="60" y="2165">Legend: blue = UI/events, green = IO ingestion, violet = model/session, orange = rendering/analysis, red = invariants/risks. Displayed paths are the main source files, not an exhaustive helper list.</text>
</svg>
